<svg width="161" height="123" viewBox="0 0 161 123" fill="none" xmlns="http://www.w3.org/2000/svg">
<g opacity="0.4" clip-path="url(#clip0_65_1918)">
<path d="M155.388 71.9019C155.388 71.9019 165.183 80.3552 158.893 99.4576C153.09 117.084 133.461 126.451 115.922 119.771C115.724 119.695 115.527 119.619 115.327 119.54L123.913 115.628H136.171L142.214 106.64L149.658 103.157L154.236 85.8818L154.064 73.5294L155.388 71.9019Z" fill="url(#paint0_linear_65_1918)"/>
<path d="M13.5315 62.8324C13.5315 62.8324 2.55053 100.726 33.7371 117.508L30.5723 119.845L18.552 113.814L4.46622 98.8987V80.8074C4.46622 80.3 4.29394 71.33 4.46622 70.6528C4.6385 69.9755 6.18341 65.7424 6.18341 65.7424L9.14214 62.8306L11.1646 61.8987L13.5334 62.8306L13.5315 62.8324Z" fill="url(#paint1_linear_65_1918)"/>
<path d="M59.9743 105.835C48.5851 100.694 41.0497 92.2297 37.1453 80.4364H19.2637V51.1959H30.5687C30.6829 50.6515 30.784 50.1847 30.8776 49.716C31.9694 44.2059 34.3364 39.2273 37.4823 34.6012C42.6189 27.0484 49.2648 21.1563 57.5961 17.1686C62.86 14.6498 68.4123 13.1607 74.2418 12.6089C81.4027 11.9317 88.4474 12.62 95.3312 14.5576C99.9921 15.8696 104.288 18.0858 108.381 20.6489C115.402 25.0425 121.076 30.7205 125.158 37.8858C127.506 42.0063 129.231 46.3631 130.094 51.028C130.117 51.1442 130.177 51.2549 130.255 51.4635H138.064V80.453H119.544C119.024 81.8001 118.58 83.0383 118.068 84.2488C116.761 87.3508 115.213 90.3217 112.919 92.8516C112.256 93.5823 111.471 94.2171 110.87 94.9921C107.258 99.6534 106.938 108.931 115.823 112.869C120.825 115.086 125.924 115.001 130.926 113.131C142.57 108.78 149.832 100.602 151.946 88.4358C153.174 81.3665 151.785 74.6182 147.731 68.5564C146.122 66.152 143.942 64.3326 141.147 63.3176C140.976 63.2549 140.819 63.1553 140.626 63.0556V57.1027C141.441 57.4404 142.165 57.6969 142.849 58.0327C152.002 62.5223 156.908 69.8481 158.069 79.809C158.575 84.1399 158.616 88.4026 157.262 92.5637C153.667 103.61 146.77 111.967 136.139 117.147C132.716 118.815 128.984 119.398 125.201 119.673C122.007 119.905 118.862 119.677 115.776 118.776C109.913 117.066 105.981 113.307 103.887 107.717C103.104 105.628 102.713 103.401 102.067 101.259C100.674 96.6381 97.2375 94.2817 92.3743 93.9938C88.2302 93.7502 84.2622 94.6674 80.3671 95.9406C73.4946 98.1882 67.1483 101.51 61.0136 105.252C60.7234 105.429 60.4219 105.586 59.9725 105.837L59.9743 105.835ZM52.4839 51.3933C58.538 40.7202 67.6352 34.8687 79.9345 34.7728C92.3743 34.675 101.14 41.0726 107.352 51.4302H111.119C110.943 50.9025 110.833 50.4633 110.651 50.0537C108.72 45.708 105.938 41.9676 102.275 38.8952C96.9416 34.4222 90.6628 32.038 83.794 31.1283C76.9796 30.2241 70.519 31.514 64.3881 34.5107C58.4912 37.3931 53.8883 41.6114 50.8472 47.3983C50.2012 48.6272 49.7049 49.9337 49.057 51.3915H52.482L52.4839 51.3933Z" fill="black"/>
<path d="M98.243 102.833C96.4116 102.759 94.6719 102.598 92.9398 102.637C85.174 102.814 77.9719 105.016 71.2418 108.753C66.3018 111.495 61.4442 114.379 56.5024 117.117C50.8808 120.232 44.9409 122.387 38.4298 122.887C28.8476 123.622 20.5182 120.81 13.5259 114.371C5.91555 107.367 1.65535 98.5868 0.342643 88.493C-0.955079 78.5118 1.41565 69.3555 7.66832 61.3045C9.88549 58.4498 12.6588 56.1635 15.7992 54.32C15.9266 54.2462 16.0707 54.2019 16.2992 54.106V60.1567C14.6925 61.7529 13.1026 63.1424 11.7413 64.7238C8.50912 68.4845 6.77882 72.9575 6.15899 77.7756C4.96051 87.098 6.76946 95.8687 11.8368 103.877C15.1101 109.05 19.7223 112.737 25.3627 115.244C28.8307 116.787 32.4374 117.584 36.2163 117.673C39.0889 117.739 41.8379 117.032 44.5382 116.156C51.1935 113.995 57.1765 110.52 63.1052 106.937C70.0826 102.72 77.4776 99.4596 85.4736 97.6291C88.0372 97.0423 90.6421 96.8024 93.26 97.3043C95.9322 97.8173 97.4846 99.502 98.2243 102.006C98.2673 102.152 98.2898 102.307 98.2954 102.458C98.301 102.574 98.2655 102.693 98.2449 102.833H98.243Z" fill="black"/>
<path d="M77.811 113.668C79.5019 113.672 80.8558 114.997 80.8352 116.624C80.8146 118.221 79.4738 119.525 77.8428 119.54C76.135 119.555 74.811 118.274 74.811 116.606C74.811 114.893 76.0657 113.665 77.811 113.668Z" fill="black"/>
<path d="M112.349 11.5127C112.336 12.7841 111.383 13.6588 110.039 13.6311C108.767 13.6053 107.855 12.6992 107.857 11.4647C107.859 10.2505 108.917 9.21529 110.127 9.24297C111.362 9.27065 112.361 10.2911 112.347 11.5127H112.349Z" fill="black"/>
<path d="M121.113 101.344C122.164 101.331 123.003 102.157 122.993 103.196C122.984 104.204 122.194 104.966 121.151 104.973C120.08 104.981 119.306 104.259 119.286 103.233C119.263 102.163 120.044 101.355 121.113 101.344Z" fill="black"/>
<path d="M98.0502 113.849C98.0183 114.805 97.1176 115.65 96.1532 115.63C95.1233 115.608 94.2357 114.7 94.2881 113.72C94.3387 112.755 95.2188 111.98 96.2356 112.002C97.2281 112.024 98.082 112.893 98.0502 113.849Z" fill="black"/>
<path d="M33.3084 98.9004C33.3009 99.8636 32.4301 100.707 31.4432 100.705C30.4564 100.703 29.5594 99.8636 29.5463 98.9299C29.5332 97.9205 30.4096 97.0809 31.4638 97.0957C32.4882 97.1104 33.3159 97.9205 33.3065 98.9004H33.3084Z" fill="black"/>
<path d="M133.733 37.0111C133.744 38.0131 132.926 38.8232 131.902 38.8213C130.905 38.8213 130.033 37.9799 130.031 37.0203C130.031 36.0552 130.888 35.2156 131.885 35.2064C132.887 35.1971 133.722 36.0128 133.731 37.0111H133.733Z" fill="black"/>
<path d="M28.6922 36.3597C28.6716 37.347 27.8121 38.1331 26.8027 38.0906C25.7728 38.0482 25.0163 37.251 25.0406 36.2342C25.0631 35.2784 25.8646 34.4923 26.8252 34.4849C27.8477 34.4775 28.7147 35.3485 28.6922 36.3597Z" fill="black"/>
<path d="M40.4992 20.7799C39.4543 20.7725 38.6621 19.9993 38.6678 18.9918C38.6734 18.0341 39.4749 17.2203 40.428 17.2056C41.4542 17.1889 42.3325 18.0581 42.3156 19.073C42.2988 20.0362 41.501 20.7873 40.501 20.778L40.4992 20.7799Z" fill="black"/>
<path d="M49.2273 9.90565C50.2872 9.91672 51.0663 10.6917 51.0363 11.7048C51.0063 12.681 50.2217 13.408 49.2105 13.4006C48.1618 13.3914 47.3791 12.6035 47.409 11.5886C47.4371 10.6032 48.203 9.89457 49.2273 9.90565Z" fill="black"/>
<path d="M130.304 89.4192C130.338 88.6792 130.714 88.2548 131.45 88.2345C132.199 88.2142 132.636 88.6792 132.649 89.3583C132.662 90.0355 132.224 90.5375 131.497 90.5411C130.795 90.5448 130.36 90.1333 130.304 89.4192Z" fill="black"/>
<path d="M128.632 95.553C128.512 96.1897 128.122 96.5883 127.36 96.5237C126.641 96.4628 126.319 96.0014 126.304 95.35C126.291 94.7356 126.939 94.1949 127.555 94.2337C128.214 94.2742 128.699 94.8352 128.632 95.5549V95.553Z" fill="black"/>
<path d="M138.487 43.0414C138.465 43.6799 137.892 44.2187 137.253 44.1504C136.575 44.0766 136.18 43.6928 136.169 42.999C136.16 42.3586 136.735 41.8438 137.386 41.8862C138.006 41.9268 138.508 42.4509 138.487 43.0395V43.0414Z" fill="black"/>
<path d="M26.9151 89.6923C26.8927 90.388 26.3103 90.984 25.7148 90.8991C25.0294 90.8013 24.5818 90.4286 24.6156 89.6739C24.6511 88.9025 25.1268 88.5962 25.8402 88.6202C26.5537 88.6442 26.8627 89.0944 26.9151 89.6942V89.6923Z" fill="black"/>
<path d="M39.3531 105.58C39.3288 106.232 38.7932 106.697 38.1097 106.636C37.4094 106.573 37.0498 106.158 37.061 105.486C37.0723 104.787 37.5123 104.442 38.1959 104.423C38.8644 104.405 39.3793 104.94 39.355 105.58H39.3531Z" fill="black"/>
<path d="M87.7153 115.132C87.0786 115.065 86.6235 114.77 86.5805 114.061C86.5393 113.399 87.0467 112.873 87.7097 112.864C88.3463 112.856 88.9531 113.423 88.8913 114.025C88.8239 114.681 88.4456 115.08 87.7153 115.132Z" fill="black"/>
<path d="M89.2958 5.67233C88.5861 5.66126 88.058 5.10767 88.1086 4.45629C88.1591 3.80121 88.5599 3.47643 89.2115 3.45614C89.8894 3.43584 90.4587 3.96175 90.3932 4.5873C90.3257 5.2553 89.91 5.61513 89.2939 5.67233H89.2958Z" fill="black"/>
<path d="M32.7184 27.9692C31.9245 27.9508 31.4732 27.5651 31.4488 26.8583C31.4245 26.1885 31.8215 25.7733 32.5368 25.7622C33.2671 25.7512 33.724 26.0833 33.7371 26.8417C33.7484 27.5411 33.3476 27.8935 32.7184 27.9692Z" fill="black"/>
<path d="M119.63 19.6081C119.589 20.2669 119.271 20.6913 118.55 20.7337C117.889 20.7725 117.287 20.2392 117.331 19.6118C117.377 18.9346 117.806 18.512 118.477 18.5064C119.147 18.4991 119.566 18.894 119.628 19.6081H119.63Z" fill="black"/>
<path d="M68.2213 116.143C67.6146 116.08 67.2063 115.735 67.1764 115.045C67.1483 114.382 67.6689 113.862 68.3374 113.903C69.0115 113.943 69.4273 114.314 69.4685 114.993C69.5078 115.632 68.961 116.143 68.2213 116.141V116.143Z" fill="black"/>
<path d="M124.932 24.4871C125.675 24.4649 126.196 24.9355 126.19 25.5906C126.182 26.2844 125.8 26.6867 125.113 26.7125C124.377 26.7402 123.933 26.325 123.915 25.6053C123.896 24.9281 124.285 24.5351 124.933 24.4871H124.932Z" fill="black"/>
<path d="M58.6428 9.30773C57.9481 9.30404 57.3882 8.75784 57.4256 8.13597C57.4687 7.43292 57.9406 7.08415 58.5885 7.09523C59.2495 7.1063 59.6952 7.50857 59.6896 8.20056C59.684 8.87963 59.272 9.24315 58.6428 9.30773Z" fill="black"/>
<path d="M100.926 8.00855C100.859 8.63964 100.505 9.03638 99.8048 9.05852C99.1307 9.08067 98.6232 8.56214 98.67 7.89968C98.7205 7.20769 99.155 6.86447 99.8235 6.84232C100.41 6.82203 100.932 7.39038 100.925 8.00671L100.926 8.00855Z" fill="black"/>
<path d="M23.1699 44.6046C22.4489 44.5769 21.9321 44.0325 21.992 43.3959C22.0576 42.7076 22.4695 42.3607 23.1643 42.3626C23.8347 42.3644 24.3571 42.9088 24.286 43.5528C24.2111 44.2281 23.7935 44.5732 23.1699 44.6046Z" fill="black"/>
<path d="M66.9273 7.36631C66.1764 7.28697 65.727 6.94743 65.7345 6.25176C65.7401 5.569 66.1483 5.1575 66.8562 5.17226C67.5434 5.18887 67.9704 5.56715 67.9629 6.26836C67.9573 6.95666 67.5621 7.32572 66.9273 7.36631Z" fill="black"/>
<path d="M43.381 51.124C43.3959 51.0871 43.4109 51.0483 43.4259 51.0096C45.4184 45.3039 48.5906 40.3198 53.0156 36.1549C61.7701 27.9157 72.296 24.5444 84.2583 25.6405C91.687 26.3214 98.3722 29.1115 104.292 33.5808C110.331 38.1386 115.037 43.6653 116.956 51.1221H123.757C123.726 50.7918 123.701 50.4763 123.63 50.17C121.499 41.1575 116.679 33.8114 109.295 28.1408C102.217 22.7046 94.0708 19.7447 85.2321 18.5767C80.2528 17.9179 75.2828 18.1523 70.3597 19.121C61.4704 20.8685 53.9088 25.0223 47.6543 31.4679C43.0495 36.214 39.5103 41.6207 37.4504 47.9002C37.1189 48.9133 36.9317 49.9744 36.6714 51.124H43.3866H43.381Z" fill="url(#paint2_linear_65_1918)"/>
<path d="M34.6433 84.2671C34.6433 84.2671 37.2201 97.0181 56.3413 107.963L52.0474 111.009C52.0474 111.009 35.9879 103.561 29.3176 84.7192L34.6415 84.2671H34.6433Z" fill="url(#paint3_linear_65_1918)"/>
<path d="M126.171 82.2927C126.171 82.2927 124.342 87.8249 117.741 95.3039C115.977 97.3023 114.81 99.7603 114.475 102.388C114.151 104.918 114.529 107.95 116.896 110.727C116.896 110.727 106.479 108.826 111.758 97.3835C112.23 96.3594 112.799 95.3814 113.43 94.444C115.2 91.8163 119.994 84.5513 120.761 81.8701L126.171 82.2927Z" fill="url(#paint4_linear_65_1918)"/>
<path d="M147.028 83.5272L149.658 81.4052C149.658 81.4052 148.525 66.9713 139.19 65.4766L147.03 83.5254L147.028 83.5272Z" fill="url(#paint5_linear_65_1918)"/>
<path d="M78.5863 5.82375C80.2183 5.82375 81.5413 4.52006 81.5413 2.91188C81.5413 1.30369 80.2183 0 78.5863 0C76.9543 0 75.6313 1.30369 75.6313 2.91188C75.6313 4.52006 76.9543 5.82375 78.5863 5.82375Z" fill="black"/>
<path d="M59.4257 77.7736H60.9631C61.3189 78.5652 61.6878 79.379 62.0511 80.1964C62.3975 80.977 62.7402 81.7576 63.199 82.7983C63.9911 80.9733 64.6653 79.4196 65.3656 77.8031H66.918C67.3281 80.6135 67.7345 83.3925 68.1558 86.2859C67.5023 86.3782 67.0023 86.4483 66.3469 86.5406C66.0641 84.8189 65.7945 83.1692 65.5248 81.5195L65.3057 81.4955C64.6334 83.0825 63.9593 84.6694 63.1897 86.4871C62.4144 84.6971 61.7234 83.1028 61.0324 81.5103C60.9631 81.5251 60.8938 81.5398 60.8245 81.5564C60.5661 83.1618 60.3077 84.7654 60.0287 86.4963C59.4369 86.4372 58.9089 86.3837 58.2085 86.3136C58.6205 83.4276 59.0156 80.6467 59.4257 77.7717V77.7736Z" fill="white"/>
<path d="M94.5297 77.5928C97.1888 77.6002 99.1101 79.499 99.1008 82.1064C99.0895 84.712 97.0615 86.6477 94.3799 86.6089C91.7433 86.572 89.8107 84.6455 89.8145 82.0566C89.8182 79.4215 91.7582 77.5836 94.5297 77.5928ZM94.4511 84.9666C96.0203 84.9611 97.2824 83.6823 97.2675 82.1119C97.2525 80.5139 95.996 79.2314 94.4529 79.2388C92.8968 79.248 91.644 80.5268 91.6384 82.1119C91.6309 83.686 92.9005 84.9721 94.4529 84.9666H94.4511Z" fill="white"/>
<path d="M75.693 77.5909C78.3484 77.6057 80.2809 79.5229 80.2528 82.1174C80.2247 84.6916 78.2716 86.5867 75.6162 86.6163C72.9702 86.6458 70.9553 84.6658 70.9646 82.0454C70.974 79.4122 72.9234 77.5761 75.693 77.5909ZM75.6218 84.9666C77.1855 84.9592 78.4345 83.6748 78.4158 82.0934C78.397 80.4991 77.1218 79.2148 75.5844 79.2424C74.0076 79.2701 72.7867 80.5323 72.7904 82.1322C72.7942 83.7118 74.0544 84.9758 75.6237 84.9684L75.6218 84.9666Z" fill="white"/>
<path d="M24.8085 72.0866C24.1269 72.0866 23.4377 71.712 23.4377 70.8761V60.177C23.4377 59.2987 24.1269 58.9075 24.8085 58.9075C25.4901 58.9075 26.1999 59.3042 26.1999 60.177V70.8761C26.1999 71.6695 25.4995 72.0866 24.8085 72.0866Z" fill="url(#paint6_linear_65_1918)"/>
<path d="M24.8085 59.092C25.4002 59.092 26.0126 59.4334 26.0126 60.1771V70.8761C26.0126 71.5607 25.4002 71.9021 24.8085 71.9021C24.2167 71.9021 23.625 71.581 23.625 70.8761V60.1771C23.625 59.4334 24.1961 59.092 24.8085 59.092Z" fill="url(#paint7_linear_65_1918)"/>
<path d="M38.0948 72.0865C37.578 72.0865 37.0256 71.8226 36.7222 71.4314L30.8572 63.9893L30.8946 64.5078V70.8354C30.8946 71.6953 30.1737 72.0865 29.5033 72.0865C28.6456 72.0865 28.0913 71.5956 28.0913 70.8354V60.3172C28.0913 59.3484 28.8329 58.9055 29.5239 58.9055C30.0669 58.9055 30.4751 59.1122 30.8534 59.5772L36.8926 67.309L36.8477 66.5616V60.0754C36.8477 59.3152 37.5855 58.9055 38.2802 58.9055C38.975 58.9055 39.651 59.2672 39.651 60.0754V70.6933C39.651 71.6067 38.8682 72.0846 38.0967 72.0846L38.0948 72.0865Z" fill="url(#paint8_linear_65_1918)"/>
<path d="M38.2783 59.0919C38.8907 59.0919 39.4618 59.3927 39.4618 60.0773V70.6951C39.4618 71.4997 38.7671 71.902 38.0948 71.902C37.6248 71.902 37.136 71.6602 36.8701 71.3189L30.625 63.3952L30.7073 64.5208V70.8354C30.7073 71.579 30.095 71.902 29.5033 71.902C28.8703 71.902 28.2786 71.5809 28.2786 70.8354V60.3172C28.2786 59.5127 28.8703 59.0901 29.5239 59.0901C30.0332 59.0901 30.3815 59.2912 30.7073 59.6935L37.1154 67.8977L37.033 66.5506V60.0755C37.033 59.4315 37.666 59.0901 38.2783 59.0901V59.0919Z" fill="url(#paint9_linear_65_1918)"/>
<path d="M52.1954 72.0865C51.6786 72.0865 51.1261 71.8226 50.8228 71.4314L44.9577 63.9893L44.9952 64.5078V70.8354C44.9952 71.6953 44.2742 72.0865 43.6038 72.0865C42.7462 72.0865 42.1919 71.5956 42.1919 70.8354V60.3172C42.1919 59.3484 42.9335 58.9055 43.6244 58.9055C44.1675 58.9055 44.5757 59.1122 44.954 59.5772L50.9932 67.309L50.9482 66.5616V60.0754C50.9482 59.3152 51.6861 58.9055 52.3808 58.9055C53.0755 58.9055 53.7516 59.2672 53.7516 60.0754V70.6933C53.7516 71.6067 52.9688 72.0846 52.1973 72.0846L52.1954 72.0865Z" fill="url(#paint10_linear_65_1918)"/>
<path d="M52.3789 59.0919C52.9913 59.0919 53.5624 59.3927 53.5624 60.0773V70.6951C53.5624 71.4997 52.8677 71.902 52.1954 71.902C51.7254 71.902 51.2366 71.6602 50.9707 71.3189L44.7255 63.3952L44.8079 64.5208V70.8354C44.8079 71.579 44.1956 71.902 43.6038 71.902C42.9709 71.902 42.3792 71.5809 42.3792 70.8354V60.3172C42.3792 59.5127 42.9709 59.0901 43.6244 59.0901C44.1338 59.0901 44.4821 59.2912 44.8079 59.6935L51.216 67.8977L51.1336 66.5506V60.0755C51.1336 59.4315 51.7666 59.0901 52.3789 59.0901V59.0919Z" fill="url(#paint11_linear_65_1918)"/>
<path d="M62.5418 72.2877C58.4258 72.2877 55.6599 69.5622 55.6599 65.5062C55.6599 61.4502 58.4258 58.7063 62.5418 58.7063C66.6578 58.7063 69.3618 61.4392 69.3618 65.5062C69.3618 69.5732 66.6203 72.2877 62.5418 72.2877ZM62.5418 61.1273C60.0905 61.1273 58.4426 62.8877 58.4426 65.5081C58.4426 68.1284 60.0886 69.8685 62.5418 69.8685C64.9949 69.8685 66.5997 68.1155 66.5997 65.5081C66.5997 62.9007 64.9687 61.1273 62.5418 61.1273Z" fill="url(#paint12_linear_65_1918)"/>
<path d="M62.5418 72.1032C58.5419 72.1032 55.8472 69.4681 55.8472 65.5062C55.8472 61.5444 58.54 58.8909 62.5418 58.8909C66.5435 58.8909 69.1746 61.5444 69.1746 65.5062C69.1746 69.4681 66.5211 72.1032 62.5418 72.1032ZM66.787 65.5062C66.787 62.7715 65.0941 60.941 62.5418 60.941C59.9894 60.941 58.2553 62.7715 58.2553 65.5062C58.2553 68.241 59.9688 70.0512 62.5418 70.0512C65.1147 70.0512 66.787 68.2207 66.787 65.5062Z" fill="url(#paint13_linear_65_1918)"/>
<path d="M76.7867 72.0865C76.2156 72.0865 75.7531 71.806 75.5152 71.317L69.9255 60.6641C69.7513 60.2637 69.7794 59.8669 70.0004 59.5366C70.2569 59.1546 70.7419 58.9055 71.2344 58.9055C71.8318 58.9055 72.2232 59.1362 72.4648 59.6344L76.7849 67.7998L81.0282 59.6713C81.2829 59.1934 81.7342 58.9074 82.2361 58.9074C82.7379 58.9074 83.2454 59.1694 83.487 59.5606C83.7061 59.913 83.7042 60.3412 83.4851 60.7656L78.0152 71.3631C77.7511 71.8134 77.283 72.0865 76.7867 72.0865Z" fill="url(#paint14_linear_65_1918)"/>
<path d="M71.2364 59.092C71.727 59.092 72.0734 59.2526 72.2982 59.7157L76.7868 68.2023L81.195 59.7563C81.4197 59.3338 81.8073 59.092 82.2361 59.092C82.9702 59.092 83.8073 59.736 83.3185 60.6808L77.8486 71.2784C77.6239 71.6603 77.2157 71.9021 76.7868 71.9021C76.358 71.9021 75.9086 71.7009 75.6857 71.2378L70.0941 60.5793C69.7271 59.7342 70.5023 59.092 71.2364 59.092Z" fill="url(#paint15_linear_65_1918)"/>
<path d="M95.071 72.2878C94.6515 72.2878 94.116 72.0774 93.865 71.6069L92.4868 68.9109H86.1461L84.7698 71.605C84.5638 72.0331 84.1181 72.2896 83.5825 72.2896C83.0881 72.2896 82.5863 72.0276 82.3316 71.6382C82.1256 71.3208 82.1031 70.9536 82.2698 70.6012L88.0899 59.3726C88.3577 58.7894 88.8389 58.7083 89.3183 58.7083C89.8726 58.7083 90.3127 58.95 90.5262 59.3726L96.3013 70.5329C96.5298 70.913 96.5541 71.3098 96.3631 71.6382C96.1384 72.0276 95.6197 72.2896 95.0748 72.2896L95.071 72.2878ZM91.2977 66.5895L89.3165 62.7015L87.3352 66.5895H91.2996H91.2977Z" fill="url(#paint16_linear_65_1918)"/>
<path d="M90.3575 59.4536L96.1327 70.6139C96.6626 71.4978 95.8462 72.1012 95.0709 72.1012C94.6833 72.1012 94.2338 71.9001 94.0297 71.5181L92.6009 68.7225H86.0299L84.6011 71.5181C84.397 71.9407 83.9682 72.1012 83.5805 72.1012C82.8671 72.1012 82.0712 71.4572 82.4382 70.673L88.2546 59.4517C88.4587 59.0089 88.7845 58.8889 89.3163 58.8889C89.7452 58.8889 90.1534 59.0495 90.3575 59.4517V59.4536ZM87.0318 66.7739H91.6028L89.3163 62.2898L87.0299 66.7739H87.0318Z" fill="url(#paint17_linear_65_1918)"/>
<path d="M100.745 72.0865C100.063 72.0865 99.3743 71.6565 99.3743 70.8354V61.3468H95.7863C94.8725 61.3468 94.4568 60.7194 94.4568 60.1363C94.4568 59.5237 94.8688 58.9055 95.7863 58.9055H105.724C106.629 58.9055 107.116 59.5385 107.116 60.1363C107.116 60.7342 106.629 61.3468 105.724 61.3468H102.116L102.136 70.8354C102.136 71.6178 101.429 72.0865 100.745 72.0865Z" fill="url(#paint18_linear_65_1918)"/>
<path d="M106.928 60.1383C106.928 60.6402 106.5 61.1643 105.724 61.1643H101.929L101.949 70.8373C101.949 71.5607 101.275 71.9039 100.745 71.9039C100.174 71.9039 99.5615 71.5625 99.5615 70.8373V61.1643H95.7863C94.9905 61.1643 94.644 60.6421 94.644 60.1383C94.644 59.6346 94.9905 59.092 95.7863 59.092H105.724C106.5 59.092 106.928 59.6143 106.928 60.1383Z" fill="url(#paint19_linear_65_1918)"/>
<path d="M109.275 72.0866C108.593 72.0866 107.904 71.712 107.904 70.8761V60.177C107.904 59.2987 108.593 58.9075 109.275 58.9075C109.956 58.9075 110.666 59.3042 110.666 60.177V70.8761C110.666 71.6695 109.966 72.0866 109.275 72.0866Z" fill="url(#paint20_linear_65_1918)"/>
<path d="M109.275 59.092C109.867 59.092 110.479 59.4334 110.479 60.1771V70.8761C110.479 71.5607 109.867 71.9021 109.275 71.9021C108.683 71.9021 108.091 71.581 108.091 70.8761V60.1771C108.091 59.4334 108.662 59.092 109.275 59.092Z" fill="url(#paint21_linear_65_1918)"/>
<path d="M118.275 72.0865C117.703 72.0865 117.241 71.806 117.003 71.317L111.413 60.6641C111.239 60.2637 111.267 59.8669 111.488 59.5366C111.745 59.1546 112.23 58.9055 112.722 58.9055C113.32 58.9055 113.711 59.1362 113.953 59.6344L118.273 67.7998L122.516 59.6713C122.771 59.1934 123.222 58.9074 123.724 58.9074C124.226 58.9074 124.733 59.1694 124.975 59.5606C125.194 59.913 125.192 60.3412 124.973 60.7656L119.503 71.3631C119.239 71.8134 118.771 72.0865 118.275 72.0865Z" fill="url(#paint22_linear_65_1918)"/>
<path d="M112.722 59.092C113.213 59.092 113.559 59.2526 113.784 59.7157L118.273 68.2023L122.681 59.7563C122.906 59.3338 123.293 59.092 123.722 59.092C124.456 59.092 125.293 59.736 124.804 60.6808L119.334 71.2784C119.11 71.6603 118.702 71.9021 118.273 71.9021C117.844 71.9021 117.394 71.7009 117.172 71.2378L111.58 60.5793C111.213 59.7342 111.988 59.092 112.722 59.092Z" fill="url(#paint23_linear_65_1918)"/>
<path d="M128.151 72.0866C127.261 72.0866 126.617 71.5016 126.617 70.6952V60.2785C126.617 59.4961 127.276 58.9075 128.151 58.9075H136.252C137.128 58.9075 137.521 59.485 137.521 60.0571C137.521 60.6291 137.046 61.2473 136.252 61.2473H129.317V64.3972H135.885C136.705 64.3972 137.134 64.9951 137.134 65.5874C137.134 66.1798 136.705 66.7371 135.885 66.7371H129.317V69.7061H136.252C137.072 69.7061 137.561 70.3317 137.561 70.9369C137.561 71.4905 137.15 72.0866 136.252 72.0866H128.151Z" fill="url(#paint24_linear_65_1918)"/>
<path d="M137.375 70.937C137.375 71.4205 137.008 71.9021 136.253 71.9021H128.153C127.336 71.9021 126.806 71.3596 126.806 70.6953V60.2786C126.806 59.6346 127.336 59.092 128.153 59.092H136.253C136.988 59.092 137.336 59.5552 137.336 60.0571C137.336 60.559 136.948 61.0628 136.253 61.0628H129.132V64.5818H135.886C136.581 64.5818 136.948 65.0837 136.948 65.5875C136.948 66.0912 136.602 66.5526 135.886 66.5526H129.132V69.8907H136.253C136.967 69.8907 137.375 70.4332 137.375 70.937Z" fill="url(#paint25_linear_65_1918)"/>
<path d="M86.1198 77.8861V77.709L84.2546 77.9987C84.2546 79.6687 84.2528 81.239 84.2546 82.8094C84.2584 84.7912 84.1254 84.9407 82.1592 85.0939V86.3745C83.9232 87.2584 85.8707 86.369 86.0149 84.52C86.1759 82.4477 86.1198 77.8861 86.1198 77.8861Z" fill="white"/>
</g>
<defs>
<linearGradient id="paint0_linear_65_1918" x1="115.327" y1="96.9185" x2="161" y2="96.9185" gradientUnits="userSpaceOnUse">
<stop stop-color="#BA7802"/>
<stop offset="0.18" stop-color="#D19A2C"/>
<stop offset="0.39" stop-color="#EBC15C"/>
<stop offset="0.5" stop-color="#F5D06F"/>
<stop offset="0.61" stop-color="#EBC15C"/>
<stop offset="0.82" stop-color="#D19A2C"/>
<stop offset="1" stop-color="#BA7802"/>
</linearGradient>
<linearGradient id="paint1_linear_65_1918" x1="4.38944" y1="90.8717" x2="33.7371" y2="90.8717" gradientUnits="userSpaceOnUse">
<stop stop-color="#BA7802"/>
<stop offset="0.18" stop-color="#D19A2C"/>
<stop offset="0.39" stop-color="#EBC15C"/>
<stop offset="0.5" stop-color="#F5D06F"/>
<stop offset="0.61" stop-color="#EBC15C"/>
<stop offset="0.82" stop-color="#D19A2C"/>
<stop offset="1" stop-color="#BA7802"/>
</linearGradient>
<linearGradient id="paint2_linear_65_1918" x1="80.2097" y1="1.00762" x2="80.2097" y2="62.9708" gradientUnits="userSpaceOnUse">
<stop stop-color="#BA7802"/>
<stop offset="0.18" stop-color="#D19A2C"/>
<stop offset="0.39" stop-color="#EBC15C"/>
<stop offset="0.5" stop-color="#F5D06F"/>
<stop offset="0.61" stop-color="#EBC15C"/>
<stop offset="0.82" stop-color="#D19A2C"/>
<stop offset="1" stop-color="#BA7802"/>
</linearGradient>
<linearGradient id="paint3_linear_65_1918" x1="29.3176" y1="97.6381" x2="56.3413" y2="97.6381" gradientUnits="userSpaceOnUse">
<stop stop-color="#BA7802"/>
<stop offset="0.18" stop-color="#D19A2C"/>
<stop offset="0.39" stop-color="#EBC15C"/>
<stop offset="0.5" stop-color="#F5D06F"/>
<stop offset="0.61" stop-color="#EBC15C"/>
<stop offset="0.82" stop-color="#D19A2C"/>
<stop offset="1" stop-color="#BA7802"/>
</linearGradient>
<linearGradient id="paint4_linear_65_1918" x1="110.265" y1="96.2985" x2="126.171" y2="96.2985" gradientUnits="userSpaceOnUse">
<stop stop-color="#BA7802"/>
<stop offset="0.18" stop-color="#D19A2C"/>
<stop offset="0.39" stop-color="#EBC15C"/>
<stop offset="0.5" stop-color="#F5D06F"/>
<stop offset="0.61" stop-color="#EBC15C"/>
<stop offset="0.82" stop-color="#D19A2C"/>
<stop offset="1" stop-color="#BA7802"/>
</linearGradient>
<linearGradient id="paint5_linear_65_1918" x1="139.188" y1="74.5019" x2="149.658" y2="74.5019" gradientUnits="userSpaceOnUse">
<stop stop-color="#BA7802"/>
<stop offset="0.18" stop-color="#D19A2C"/>
<stop offset="0.39" stop-color="#EBC15C"/>
<stop offset="0.5" stop-color="#F5D06F"/>
<stop offset="0.61" stop-color="#EBC15C"/>
<stop offset="0.82" stop-color="#D19A2C"/>
<stop offset="1" stop-color="#BA7802"/>
</linearGradient>
<linearGradient id="paint6_linear_65_1918" x1="24.8197" y1="29.0894" x2="24.8197" y2="89.7423" gradientUnits="userSpaceOnUse">
<stop stop-color="#BA7802"/>
<stop offset="0.18" stop-color="#D19A2C"/>
<stop offset="0.39" stop-color="#EBC15C"/>
<stop offset="0.5" stop-color="#F5D06F"/>
<stop offset="0.61" stop-color="#EBC15C"/>
<stop offset="0.82" stop-color="#D19A2C"/>
<stop offset="1" stop-color="#BA7802"/>
</linearGradient>
<linearGradient id="paint7_linear_65_1918" x1="24.8197" y1="29.0894" x2="24.8197" y2="89.7424" gradientUnits="userSpaceOnUse">
<stop stop-color="#BA7802"/>
<stop offset="0.18" stop-color="#D19A2C"/>
<stop offset="0.39" stop-color="#EBC15C"/>
<stop offset="0.5" stop-color="#F5D06F"/>
<stop offset="0.61" stop-color="#EBC15C"/>
<stop offset="0.82" stop-color="#D19A2C"/>
<stop offset="1" stop-color="#BA7802"/>
</linearGradient>
<linearGradient id="paint8_linear_65_1918" x1="33.8702" y1="29.0892" x2="33.8702" y2="89.7422" gradientUnits="userSpaceOnUse">
<stop stop-color="#BA7802"/>
<stop offset="0.18" stop-color="#D19A2C"/>
<stop offset="0.39" stop-color="#EBC15C"/>
<stop offset="0.5" stop-color="#F5D06F"/>
<stop offset="0.61" stop-color="#EBC15C"/>
<stop offset="0.82" stop-color="#D19A2C"/>
<stop offset="1" stop-color="#BA7802"/>
</linearGradient>
<linearGradient id="paint9_linear_65_1918" x1="33.8702" y1="29.0893" x2="33.8702" y2="89.7423" gradientUnits="userSpaceOnUse">
<stop stop-color="#BA7802"/>
<stop offset="0.18" stop-color="#D19A2C"/>
<stop offset="0.39" stop-color="#EBC15C"/>
<stop offset="0.5" stop-color="#F5D06F"/>
<stop offset="0.61" stop-color="#EBC15C"/>
<stop offset="0.82" stop-color="#D19A2C"/>
<stop offset="1" stop-color="#BA7802"/>
</linearGradient>
<linearGradient id="paint10_linear_65_1918" x1="47.9708" y1="29.0892" x2="47.9708" y2="89.7422" gradientUnits="userSpaceOnUse">
<stop stop-color="#BA7802"/>
<stop offset="0.18" stop-color="#D19A2C"/>
<stop offset="0.39" stop-color="#EBC15C"/>
<stop offset="0.5" stop-color="#F5D06F"/>
<stop offset="0.61" stop-color="#EBC15C"/>
<stop offset="0.82" stop-color="#D19A2C"/>
<stop offset="1" stop-color="#BA7802"/>
</linearGradient>
<linearGradient id="paint11_linear_65_1918" x1="47.9708" y1="29.0893" x2="47.9708" y2="89.7423" gradientUnits="userSpaceOnUse">
<stop stop-color="#BA7802"/>
<stop offset="0.18" stop-color="#D19A2C"/>
<stop offset="0.39" stop-color="#EBC15C"/>
<stop offset="0.5" stop-color="#F5D06F"/>
<stop offset="0.61" stop-color="#EBC15C"/>
<stop offset="0.82" stop-color="#D19A2C"/>
<stop offset="1" stop-color="#BA7802"/>
</linearGradient>
<linearGradient id="paint12_linear_65_1918" x1="62.5118" y1="29.0893" x2="62.5118" y2="89.7423" gradientUnits="userSpaceOnUse">
<stop stop-color="#BA7802"/>
<stop offset="0.18" stop-color="#D19A2C"/>
<stop offset="0.39" stop-color="#EBC15C"/>
<stop offset="0.5" stop-color="#F5D06F"/>
<stop offset="0.61" stop-color="#EBC15C"/>
<stop offset="0.82" stop-color="#D19A2C"/>
<stop offset="1" stop-color="#BA7802"/>
</linearGradient>
<linearGradient id="paint13_linear_65_1918" x1="62.5118" y1="29.0894" x2="62.5118" y2="89.7423" gradientUnits="userSpaceOnUse">
<stop stop-color="#BA7802"/>
<stop offset="0.18" stop-color="#D19A2C"/>
<stop offset="0.39" stop-color="#EBC15C"/>
<stop offset="0.5" stop-color="#F5D06F"/>
<stop offset="0.61" stop-color="#EBC15C"/>
<stop offset="0.82" stop-color="#D19A2C"/>
<stop offset="1" stop-color="#BA7802"/>
</linearGradient>
<linearGradient id="paint14_linear_65_1918" x1="76.7306" y1="29.0892" x2="76.7306" y2="89.7422" gradientUnits="userSpaceOnUse">
<stop stop-color="#BA7802"/>
<stop offset="0.18" stop-color="#D19A2C"/>
<stop offset="0.39" stop-color="#EBC15C"/>
<stop offset="0.5" stop-color="#F5D06F"/>
<stop offset="0.61" stop-color="#EBC15C"/>
<stop offset="0.82" stop-color="#D19A2C"/>
<stop offset="1" stop-color="#BA7802"/>
</linearGradient>
<linearGradient id="paint15_linear_65_1918" x1="76.7306" y1="29.0894" x2="76.7306" y2="89.7424" gradientUnits="userSpaceOnUse">
<stop stop-color="#BA7802"/>
<stop offset="0.18" stop-color="#D19A2C"/>
<stop offset="0.39" stop-color="#EBC15C"/>
<stop offset="0.5" stop-color="#F5D06F"/>
<stop offset="0.61" stop-color="#EBC15C"/>
<stop offset="0.82" stop-color="#D19A2C"/>
<stop offset="1" stop-color="#BA7802"/>
</linearGradient>
<linearGradient id="paint16_linear_65_1918" x1="89.324" y1="29.0894" x2="89.324" y2="89.7424" gradientUnits="userSpaceOnUse">
<stop stop-color="#BA7802"/>
<stop offset="0.18" stop-color="#D19A2C"/>
<stop offset="0.39" stop-color="#EBC15C"/>
<stop offset="0.5" stop-color="#F5D06F"/>
<stop offset="0.61" stop-color="#EBC15C"/>
<stop offset="0.82" stop-color="#D19A2C"/>
<stop offset="1" stop-color="#BA7802"/>
</linearGradient>
<linearGradient id="paint17_linear_65_1918" x1="89.3238" y1="29.0892" x2="89.3238" y2="89.7423" gradientUnits="userSpaceOnUse">
<stop stop-color="#BA7802"/>
<stop offset="0.18" stop-color="#D19A2C"/>
<stop offset="0.39" stop-color="#EBC15C"/>
<stop offset="0.5" stop-color="#F5D06F"/>
<stop offset="0.61" stop-color="#EBC15C"/>
<stop offset="0.82" stop-color="#D19A2C"/>
<stop offset="1" stop-color="#BA7802"/>
</linearGradient>
<linearGradient id="paint18_linear_65_1918" x1="100.786" y1="29.0892" x2="100.786" y2="89.7422" gradientUnits="userSpaceOnUse">
<stop stop-color="#BA7802"/>
<stop offset="0.18" stop-color="#D19A2C"/>
<stop offset="0.39" stop-color="#EBC15C"/>
<stop offset="0.5" stop-color="#F5D06F"/>
<stop offset="0.61" stop-color="#EBC15C"/>
<stop offset="0.82" stop-color="#D19A2C"/>
<stop offset="1" stop-color="#BA7802"/>
</linearGradient>
<linearGradient id="paint19_linear_65_1918" x1="100.786" y1="29.0894" x2="100.786" y2="89.7424" gradientUnits="userSpaceOnUse">
<stop stop-color="#BA7802"/>
<stop offset="0.18" stop-color="#D19A2C"/>
<stop offset="0.39" stop-color="#EBC15C"/>
<stop offset="0.5" stop-color="#F5D06F"/>
<stop offset="0.61" stop-color="#EBC15C"/>
<stop offset="0.82" stop-color="#D19A2C"/>
<stop offset="1" stop-color="#BA7802"/>
</linearGradient>
<linearGradient id="paint20_linear_65_1918" x1="109.284" y1="29.0894" x2="109.284" y2="89.7423" gradientUnits="userSpaceOnUse">
<stop stop-color="#BA7802"/>
<stop offset="0.18" stop-color="#D19A2C"/>
<stop offset="0.39" stop-color="#EBC15C"/>
<stop offset="0.5" stop-color="#F5D06F"/>
<stop offset="0.61" stop-color="#EBC15C"/>
<stop offset="0.82" stop-color="#D19A2C"/>
<stop offset="1" stop-color="#BA7802"/>
</linearGradient>
<linearGradient id="paint21_linear_65_1918" x1="109.284" y1="29.0894" x2="109.284" y2="89.7424" gradientUnits="userSpaceOnUse">
<stop stop-color="#BA7802"/>
<stop offset="0.18" stop-color="#D19A2C"/>
<stop offset="0.39" stop-color="#EBC15C"/>
<stop offset="0.5" stop-color="#F5D06F"/>
<stop offset="0.61" stop-color="#EBC15C"/>
<stop offset="0.82" stop-color="#D19A2C"/>
<stop offset="1" stop-color="#BA7802"/>
</linearGradient>
<linearGradient id="paint22_linear_65_1918" x1="118.218" y1="29.0892" x2="118.218" y2="89.7422" gradientUnits="userSpaceOnUse">
<stop stop-color="#BA7802"/>
<stop offset="0.18" stop-color="#D19A2C"/>
<stop offset="0.39" stop-color="#EBC15C"/>
<stop offset="0.5" stop-color="#F5D06F"/>
<stop offset="0.61" stop-color="#EBC15C"/>
<stop offset="0.82" stop-color="#D19A2C"/>
<stop offset="1" stop-color="#BA7802"/>
</linearGradient>
<linearGradient id="paint23_linear_65_1918" x1="118.218" y1="29.0894" x2="118.218" y2="89.7424" gradientUnits="userSpaceOnUse">
<stop stop-color="#BA7802"/>
<stop offset="0.18" stop-color="#D19A2C"/>
<stop offset="0.39" stop-color="#EBC15C"/>
<stop offset="0.5" stop-color="#F5D06F"/>
<stop offset="0.61" stop-color="#EBC15C"/>
<stop offset="0.82" stop-color="#D19A2C"/>
<stop offset="1" stop-color="#BA7802"/>
</linearGradient>
<linearGradient id="paint24_linear_65_1918" x1="132.089" y1="29.0894" x2="132.089" y2="89.7423" gradientUnits="userSpaceOnUse">
<stop stop-color="#BA7802"/>
<stop offset="0.18" stop-color="#D19A2C"/>
<stop offset="0.39" stop-color="#EBC15C"/>
<stop offset="0.5" stop-color="#F5D06F"/>
<stop offset="0.61" stop-color="#EBC15C"/>
<stop offset="0.82" stop-color="#D19A2C"/>
<stop offset="1" stop-color="#BA7802"/>
</linearGradient>
<linearGradient id="paint25_linear_65_1918" x1="132.089" y1="29.0894" x2="132.089" y2="89.7424" gradientUnits="userSpaceOnUse">
<stop stop-color="#BA7802"/>
<stop offset="0.18" stop-color="#D19A2C"/>
<stop offset="0.39" stop-color="#EBC15C"/>
<stop offset="0.5" stop-color="#F5D06F"/>
<stop offset="0.61" stop-color="#EBC15C"/>
<stop offset="0.82" stop-color="#D19A2C"/>
<stop offset="1" stop-color="#BA7802"/>
</linearGradient>
<clipPath id="clip0_65_1918">
<rect width="161" height="123" fill="white"/>
</clipPath>
</defs>
</svg>
