<svg width="71" height="13" viewBox="0 0 71 13" fill="none" xmlns="http://www.w3.org/2000/svg">
<path d="M6 0L7.34708 4.49139H11.7063L8.17963 7.26722L9.52671 11.7586L6 8.98278L2.47329 11.7586L3.82037 7.26722L0.293661 4.49139H4.65292L6 0Z" fill="black"/>
<path d="M21 0L22.3471 4.49139H26.7063L23.1796 7.26722L24.5267 11.7586L21 8.98278L17.4733 11.7586L18.8204 7.26722L15.2937 4.49139H19.6529L21 0Z" fill="black"/>
<path d="M35.5 0L36.9593 4.49139H41.6819L37.8613 7.26722L39.3206 11.7586L35.5 8.98278L31.6794 11.7586L33.1387 7.26722L29.3181 4.49139H34.0407L35.5 0Z" fill="black"/>
<path d="M50 0L51.3471 4.49139H55.7063L52.1796 7.26722L53.5267 11.7586L50 8.98278L46.4733 11.7586L47.8204 7.26722L44.2937 4.49139H48.6529L50 0Z" fill="black"/>
<path d="M65 0L66.3471 4.49139H70.7063L67.1796 7.26722L68.5267 11.7586L65 8.98278L61.4733 11.7586L62.8204 7.26722L59.2937 4.49139H63.6529L65 0Z" fill="black"/>
</svg>
